<?xml version="1.0" encoding="UTF-8" standalone="no"?><!-- Generator: Gravit.io --><svg xmlns="http://www.w3.org/2000/svg" xmlns:xlink="http://www.w3.org/1999/xlink" style="isolation:isolate" viewBox="0 0 800 800" width="800pt" height="800pt"><defs><clipPath id="_clipPath_rXyTZi1oSYts8kc6RWGNSX5eUKTyFxrR"><rect width="800" height="800"/></clipPath></defs><g clip-path="url(#_clipPath_rXyTZi1oSYts8kc6RWGNSX5eUKTyFxrR)"><circle vector-effect="non-scaling-stroke" cx="400" cy="400" r="300" fill="rgb(255,255,255)"/><g><rect x="356.582" y="277.418" width="29.552" height="325.075" transform="matrix(1,0,0,1,0,0)" fill="rgb(56,127,161)"/><rect x="386.134" y="277.418" width="29.552" height="325.075" transform="matrix(1,0,0,1,0,0)" fill="rgb(12,59,91)"/><rect x="394.194" y="79.806" width="37.612" height="360" transform="matrix(0,-1,1,0,153.194,672.806)" fill="rgb(56,127,161)"/><rect x="486.881" y="298.612" width="29.552" height="177.313" transform="matrix(0,-1,1,0,114.388,888.925)" fill="rgb(12,59,91)"/><defs><filter id="2AUF7G7Vx5IN4gp7S1xShAjy8AyzzaYD" x="-200%" y="-200%" width="400%" height="400%" filterUnits="objectBoundingBox" color-interpolation-filters="sRGB"><feGaussianBlur xmlns="http://www.w3.org/2000/svg" stdDeviation="0"/></filter></defs><g filter="url(#2AUF7G7Vx5IN4gp7S1xShAjy8AyzzaYD)"><rect x="386.134" y="241" width="206.866" height="39.493" transform="matrix(1,0,0,1,0,0)" fill="rgb(12,59,91)"/></g><defs><filter id="nJv4PY0euo7rcwCW5PDWFDrKKXPqegyQ" x="-200%" y="-200%" width="400%" height="400%" filterUnits="objectBoundingBox" color-interpolation-filters="sRGB"><feGaussianBlur xmlns="http://www.w3.org/2000/svg" stdDeviation="0"/></filter></defs><g filter="url(#nJv4PY0euo7rcwCW5PDWFDrKKXPqegyQ)"><rect x="386.134" y="372.493" width="206.866" height="39.493" transform="matrix(1,0,0,1,0,0)" fill="rgb(12,59,91)"/></g></g></g></svg>